<?xml version="1.0" encoding="UTF-8" standalone="no"?>
<svg width="201px" height="105px" viewBox="0 0 201 105" version="1.1" xmlns="http://www.w3.org/2000/svg" xmlns:xlink="http://www.w3.org/1999/xlink">
    <!-- Generator: Sketch 44.1 (41455) - http://www.bohemiancoding.com/sketch -->
    <title>logo</title>
    <desc>Created with Sketch.</desc>
    <defs></defs>
    <g id="Page-3" stroke="none" stroke-width="1" fill="none" fill-rule="evenodd" fill-opacity="0.87">
        <g id="logo" fill="#000000">
            <path d="M68.5978858,52.118307 C66.3214266,56.2155451 62.8473124,60.115 57.7975,60.115 C48.7625,60.115 43.3675,51.99 43.3675,45.49 C43.3675,37.04 47.6575,29.24 50.2575,26.9 C52.9225,24.56 59.1625,24.95 61.1775,25.925 C63.1275,26.835 64.5575,29.825 64.5575,33.465 C64.5575,40.29 61.3075,43.865 57.0825,43.865 C55.5225,43.865 53.7025,43.41 52.3375,43.02 C51.8175,49.455 55.7825,56.02 59.3575,56.02 C63.6234729,56.02 66.4660383,52.6524263 68.2709275,49.2453324 C68.2201147,48.4752605 68.1975,47.7168037 68.1975,46.985 C68.1975,40.875 69.3675,33.335 74.1125,32.295 C75.6725,27.94 79.6375,27.485 82.6925,27.485 C86.4625,27.485 89.5175,31.125 89.5175,41.005 C89.5175,50.95 86.2025,62.26 77.6875,62.26 C71.9265431,62.26 69.4658936,57.346209 68.5978858,52.118307 Z M40.0525,6.1 C40.0525,1.81 36.1525,0.445 33.0325,0.445 C31.7975,0.445 30.4325,3.695 29.2625,8.31 C22.8275,20.4 16.7825,50.755 15.2225,59.075 C13.9875,55.175 12.8825,49.065 12.8825,39.9 C12.8825,31.58 15.0275,23.65 15.0275,20.27 C15.0275,16.89 8.9175,13.055 6.7075,13.055 C4.4975,13.055 4.2375,15.785 4.2375,16.955 C4.2375,18.645 2.1575,26.445 2.1575,37.17 C2.1575,57.775 11.2575,66.355 16.2625,66.355 C18.0175,66.355 18.1475,66.225 17.5625,64.99 C20.2925,44.515 24.2575,28.72 27.1175,19.23 C26.4675,23.845 26.0775,28.525 26.0775,32.23 C26.0775,44.32 27.0525,62.845 37.4525,62.845 C44.0825,62.845 35.8925,60.7 35.8925,37.755 C35.8925,15.915 40.0525,10.52 40.0525,6.1 Z M58.7075,30.8 C55.3275,30.8 53.1175,36 52.4675,41.655 C60.7225,45.165 62.0225,30.8 58.7075,30.8 Z M80.9375,58.815 C85.0325,58.815 89.1925,31.45 82.2375,31.45 C80.1575,31.45 81.0025,38.275 78.6625,40.355 C78.7275,48.22 76.9075,58.815 80.9375,58.815 Z M117.4025,29.5 C116.5575,28.915 111.5525,27.68 109.4725,29.825 C106.8725,32.36 103.4925,46.595 102.3875,53.29 C101.7375,50.95 101.2825,47.96 101.2825,44.19 C101.2825,29.76 103.8825,18.32 103.8825,16.045 C103.8825,13.705 98.1625,11.755 96.9275,11.755 C95.6275,11.755 95.5625,12.795 95.5625,13.25 C95.5625,13.77 93.2875,29.175 93.2875,37.56 C93.2875,49.845 95.4325,62.13 105.3125,62.13 C107.1975,62.13 105.2475,60.83 103.4275,56.41 C104.4675,51.535 108.8875,32.165 113.3075,32.165 C115.5825,32.165 116.6875,61.48 108.6275,61.48 C104.9875,61.48 107.8475,63.885 111.6175,63.885 C125.9825,63.885 125.6575,35.025 117.4025,29.5 Z M128.9725,7.4 C129.1675,10.585 125.0725,37.56 125.6575,49.455 C126.1775,61.285 132.6125,67.395 136.2525,67.2 C139.9575,67.07 134.5625,66.03 133.8475,51.6 C133.4575,42.175 137.4225,13.315 137.2275,9.22 C137.0325,5.19 128.7775,2.135 128.9725,7.4 Z M154.1275,27.485 C157.8975,27.485 160.9525,31.125 160.9525,41.005 C160.9525,50.95 157.6375,62.26 149.1225,62.26 C141.4525,62.26 139.6325,53.55 139.6325,46.985 C139.6325,40.875 140.8025,33.335 145.5475,32.295 C147.1075,27.94 151.0725,27.485 154.1275,27.485 Z M152.3725,58.815 C156.4675,58.815 160.6275,31.45 153.6725,31.45 C151.5925,31.45 152.4375,38.275 150.0975,40.355 C150.1625,48.22 148.3425,58.815 152.3725,58.815 Z M193.3875,68.5 C201.3175,72.205 201.7725,82.345 200.3425,85.465 C196.1825,94.305 167.6475,109.06 153.9325,102.625 C151.0725,101.26 143.6625,94.305 145.2225,89.755 C147.8225,82.41 167.3225,81.175 166.5425,82.865 C165.7625,84.49 152.5675,84.555 149.4475,91.185 C145.0925,100.48 190.4625,95.54 197.0275,81.565 C198.0675,79.29 197.2225,76.495 193.7125,74.87 C188.9675,72.595 183.2475,72.53 178.3075,73.115 C178.1125,73.44 177.8525,73.635 177.7225,73.635 C177.4625,73.635 177.2675,73.505 177.0725,73.245 C171.1575,74.09 166.4775,75.65 165.7625,75.325 C164.7875,74.87 162.8375,71.685 164.2025,68.695 C165.3075,66.355 170.1175,65.51 175.6425,65.51 L175.6425,65.12 C175.6425,64.275 175.6425,63.235 175.7075,62.065 L175.6425,62.065 C171.0925,62.065 164.6575,57.58 164.6575,45.945 C164.6575,36.845 173.8875,23.26 177.2675,23.26 C182.8575,23.26 183.6375,28.005 183.6375,29.37 C183.6375,30.8 171.2875,36.585 171.2875,52.445 C171.2875,57.775 173.3675,59.66 175.9025,58.945 C176.1625,55.11 176.6175,51.275 177.1375,51.275 C178.6325,51.275 179.6075,53.16 180.1925,55.63 C183.0525,52.055 185.4575,45.88 185.4575,38.145 C185.4575,36.65 189.6825,37.3 189.6825,42.175 C189.6825,46.01 186.2375,56.15 180.5825,60.31 C180.5825,61.74 180.3875,63.755 180.1275,65.705 C185.5225,66.16 190.7875,67.265 193.3875,68.5 Z" id="Neoblog"></path>
            <path d="M0.736714447,80.7 L3.71571445,80.7 C5.12871445,80.7 6.02871445,81.312 6.02871445,82.275 C6.02871445,82.941 5.61471445,83.472 4.94871445,83.661 C5.74071445,83.814 6.24471445,84.435 6.24471445,85.254 C6.24471445,86.325 5.30871445,87 3.82371445,87 L0.736714447,87 L0.736714447,80.7 Z M2.32971445,81.924 L2.32971445,83.22 L3.62571445,83.22 C4.09371445,83.22 4.39071445,82.968 4.39071445,82.563 C4.39071445,82.158 4.09371445,81.924 3.62571445,81.924 L2.32971445,81.924 Z M2.32971445,84.372 L2.32971445,85.767 L3.62571445,85.767 C4.21971445,85.767 4.58871445,85.506 4.58871445,85.056 C4.58871445,84.633 4.21971445,84.372 3.62571445,84.372 L2.32971445,84.372 Z M10.0594287,85.659 L10.0594287,80.7 L8.45742872,80.7 L8.45742872,87 L12.7324287,87 L12.7324287,85.659 L10.0594287,85.659 Z M17.771143,80.646 C19.724143,80.646 21.182143,82.014 21.182143,83.841 C21.182143,85.677 19.724143,87.072 17.771143,87.072 C15.827143,87.072 14.369143,85.686 14.369143,83.841 C14.369143,82.005 15.827143,80.646 17.771143,80.646 Z M17.789143,81.987 C16.817143,81.987 16.007143,82.788 16.007143,83.85 C16.007143,84.912 16.826143,85.731 17.789143,85.731 C18.761143,85.731 19.535143,84.912 19.535143,83.85 C19.535143,82.788 18.761143,81.987 17.789143,81.987 Z M27.3818573,83.796 L27.3818573,85.425 C27.0038573,85.614 26.5898573,85.731 26.2658573,85.731 C25.2218573,85.731 24.4208573,84.921 24.4208573,83.85 C24.4208573,82.797 25.2128573,81.987 26.2478573,81.987 C26.8328573,81.987 27.4718573,82.248 27.9308573,82.671 L28.8308573,81.582 C28.1828573,81.006 27.1928573,80.646 26.2568573,80.646 C24.2678573,80.646 22.7828573,82.023 22.7828573,83.85 C22.7828573,85.686 24.2318573,87.072 26.1488573,87.072 C27.0308573,87.072 28.0928573,86.73 28.7678573,86.253 L28.7678573,83.796 L27.3818573,83.796 Z M35.3545715,83.796 L35.3545715,85.425 C34.9765715,85.614 34.5625715,85.731 34.2385715,85.731 C33.1945715,85.731 32.3935715,84.921 32.3935715,83.85 C32.3935715,82.797 33.1855715,81.987 34.2205715,81.987 C34.8055715,81.987 35.4445715,82.248 35.9035715,82.671 L36.8035715,81.582 C36.1555715,81.006 35.1655715,80.646 34.2295715,80.646 C32.2405715,80.646 30.7555715,82.023 30.7555715,83.85 C30.7555715,85.686 32.2045715,87.072 34.1215715,87.072 C35.0035715,87.072 36.0655715,86.73 36.7405715,86.253 L36.7405715,83.796 L35.3545715,83.796 Z M40.7442858,87 L40.7442858,80.7 L39.1422858,80.7 L39.1422858,87 L40.7442858,87 Z M49.1040001,87 L49.1040001,80.7 L47.6100001,80.7 L47.6100001,84.588 L44.7030001,80.7 L43.2900001,80.7 L43.2900001,87 L44.7930001,87 L44.7930001,83.121 L47.6910001,87 L49.1040001,87 Z M55.8347143,83.796 L55.8347143,85.425 C55.4567143,85.614 55.0427143,85.731 54.7187143,85.731 C53.6747143,85.731 52.8737143,84.921 52.8737143,83.85 C52.8737143,82.797 53.6657143,81.987 54.7007143,81.987 C55.2857143,81.987 55.9247143,82.248 56.3837143,82.671 L57.2837143,81.582 C56.6357143,81.006 55.6457143,80.646 54.7097143,80.646 C52.7207143,80.646 51.2357143,82.023 51.2357143,83.85 C51.2357143,85.686 52.6847143,87.072 54.6017143,87.072 C55.4837143,87.072 56.5457143,86.73 57.2207143,86.253 L57.2207143,83.796 L55.8347143,83.796 Z M67.9281429,81.96 L67.9281429,80.7 L62.9961429,80.7 L62.9961429,87 L68.0271429,87 L68.0271429,85.74 L64.5981429,85.74 L64.5981429,84.471 L67.6041429,84.471 L67.6041429,83.211 L64.5981429,83.211 L64.5981429,81.96 L67.9281429,81.96 Z M74.0018571,83.706 L76.0808571,80.7 L74.1998571,80.7 L72.9848571,82.536 L71.7698571,80.7 L69.9068571,80.7 L72.0128571,83.778 L69.7628571,87 L71.6258571,87 L72.9848571,84.993 L74.3438571,87 L76.2608571,87 L74.0018571,83.706 Z M78.2395714,80.7 L80.9845714,80.7 C82.5955714,80.7 83.5225714,81.492 83.5225714,82.896 C83.5225714,84.372 82.5955714,85.227 80.9845714,85.227 L79.8415714,85.227 L79.8415714,87 L78.2395714,87 L78.2395714,80.7 Z M79.8415714,81.96 L79.8415714,83.967 L80.9035714,83.967 C81.6055714,83.967 82.0105714,83.616 82.0105714,82.95 C82.0105714,82.293 81.6055714,81.96 80.9035714,81.96 L79.8415714,81.96 Z M90.5772857,81.96 L90.5772857,80.7 L85.6452857,80.7 L85.6452857,87 L90.6762857,87 L90.6762857,85.74 L87.2472857,85.74 L87.2472857,84.471 L90.2532857,84.471 L90.2532857,83.211 L87.2472857,83.211 L87.2472857,81.96 L90.5772857,81.96 Z M96.7949999,87 L95.8589999,85.227 L94.5989999,85.227 L94.5989999,87 L92.9969999,87 L92.9969999,80.7 L95.8139999,80.7 C97.4789999,80.7 98.4329999,81.492 98.4329999,82.896 C98.4329999,83.859 98.0279999,84.552 97.2899999,84.921 L98.6129999,87 L96.7949999,87 Z M94.5989999,83.967 L95.8139999,83.967 C96.5069999,83.967 96.9119999,83.616 96.9119999,82.95 C96.9119999,82.293 96.5069999,81.96 95.8139999,81.96 L94.5989999,81.96 L94.5989999,83.967 Z M102.400714,87 L102.400714,80.7 L100.798714,80.7 L100.798714,87 L102.400714,87 Z M109.878428,81.96 L109.878428,80.7 L104.946428,80.7 L104.946428,87 L109.977428,87 L109.977428,85.74 L106.548428,85.74 L106.548428,84.471 L109.554428,84.471 L109.554428,83.211 L106.548428,83.211 L106.548428,81.96 L109.878428,81.96 Z M118.112143,87 L118.112143,80.7 L116.618143,80.7 L116.618143,84.588 L113.711143,80.7 L112.298143,80.7 L112.298143,87 L113.801143,87 L113.801143,83.121 L116.699143,87 L118.112143,87 Z M123.609857,80.646 C121.692857,80.646 120.243857,82.014 120.243857,83.832 C120.243857,85.677 121.656857,87.072 123.555857,87.072 C124.482857,87.072 125.481857,86.613 126.156857,85.92 L125.220857,84.93 C124.779857,85.38 124.167857,85.668 123.636857,85.668 C122.637857,85.668 121.881857,84.867 121.881857,83.814 C121.881857,82.779 122.637857,81.987 123.636857,81.987 C124.194857,81.987 124.806857,82.302 125.220857,82.806 L126.147857,81.708 C125.517857,81.06 124.545857,80.646 123.609857,80.646 Z M133.103571,81.96 L133.103571,80.7 L128.171571,80.7 L128.171571,87 L133.202571,87 L133.202571,85.74 L129.773571,85.74 L129.773571,84.471 L132.779571,84.471 L132.779571,83.211 L129.773571,83.211 L129.773571,81.96 L133.103571,81.96 Z" id="BLOGGING-EXPERIENCE"></path>
        </g>
    </g>
</svg>